<svg width="422" height="132" viewBox="0 0 422 132" fill="none" xmlns="http://www.w3.org/2000/svg">
<path d="M402.425 117.04C399.95 117.04 397.849 116.571 396.121 115.632C394.414 114.672 393.113 113.403 392.217 111.824C391.342 110.224 390.905 108.464 390.905 106.544C390.905 104.944 391.15 103.483 391.641 102.16C392.132 100.837 392.921 99.6747 394.009 98.672C395.118 97.648 396.601 96.7947 398.457 96.112C399.737 95.6427 401.262 95.2267 403.033 94.864C404.804 94.5013 406.809 94.16 409.049 93.84C411.289 93.4987 413.753 93.1253 416.441 92.72L413.305 94.448C413.305 92.4 412.814 90.896 411.833 89.936C410.852 88.976 409.209 88.496 406.905 88.496C405.625 88.496 404.292 88.8053 402.905 89.424C401.518 90.0427 400.548 91.1413 399.993 92.72L392.121 90.224C392.996 87.3653 394.638 85.04 397.049 83.248C399.46 81.456 402.745 80.56 406.905 80.56C409.956 80.56 412.665 81.0293 415.033 81.968C417.401 82.9067 419.193 84.528 420.409 86.832C421.092 88.112 421.497 89.392 421.625 90.672C421.753 91.952 421.817 93.3813 421.817 94.96V116.08H414.201V108.976L415.289 110.448C413.604 112.773 411.78 114.459 409.817 115.504C407.876 116.528 405.412 117.04 402.425 117.04ZM404.281 110.192C405.881 110.192 407.225 109.915 408.313 109.36C409.422 108.784 410.297 108.133 410.937 107.408C411.598 106.683 412.046 106.075 412.281 105.584C412.729 104.645 412.985 103.557 413.049 102.32C413.134 101.061 413.177 100.016 413.177 99.184L415.737 99.824C413.156 100.251 411.065 100.613 409.465 100.912C407.865 101.189 406.574 101.445 405.593 101.68C404.612 101.915 403.748 102.171 403.001 102.448C402.148 102.789 401.454 103.163 400.921 103.568C400.409 103.952 400.025 104.379 399.769 104.848C399.534 105.317 399.417 105.84 399.417 106.416C399.417 107.205 399.609 107.888 399.993 108.464C400.398 109.019 400.964 109.445 401.689 109.744C402.414 110.043 403.278 110.192 404.281 110.192Z" fill="#06070A"/>
<path d="M367.398 116.08V89.2H356.07V81.52H387.43V89.2H376.102V116.08H367.398Z" fill="#06070A"/>
<path d="M349.984 81.52V116.08H341.664V94.96L326.048 116.08H319.136V81.52H327.456V101.936L343.136 81.52H349.984Z" fill="#06070A"/>
<path d="M283.824 116.08L283.888 81.52H292.72V98.16L304.431 81.52H315.184L302.703 98.8L316.016 116.08H304.688L292.72 99.44V116.08H283.824Z" fill="#06070A"/>
<path d="M274.922 81.52V116.08H266.602V94.96L250.986 116.08H244.074V81.52H252.394V101.936L268.074 81.52H274.922Z" fill="#06070A"/>
<path d="M197.137 116.08V70H205.841V88.944H226.449V70H235.153V116.08H226.449V97.072H205.841V116.08H197.137Z" fill="#06070A"/>
<path d="M158.21 116.08V89.2H146.882V81.52H178.242V89.2H166.914V116.08H158.21Z" fill="#06070A"/>
<path d="M117.679 131.44L124.335 113.136L124.463 118.512L109.423 81.52H118.447L128.559 107.696H126.511L136.559 81.52H145.263L125.743 131.44H117.679Z" fill="#06070A"/>
<path d="M76.886 116.08V81.52H93.078C94.358 81.52 95.478 81.5947 96.438 81.744C97.398 81.872 98.198 82.032 98.838 82.224C100.417 82.6933 101.857 83.6107 103.158 84.976C104.459 86.3413 105.11 88.3253 105.11 90.928C105.11 92.464 104.865 93.712 104.374 94.672C103.883 95.6107 103.233 96.3894 102.422 97.008C102.038 97.2854 101.654 97.52 101.27 97.712C100.886 97.904 100.502 98.0534 100.118 98.16C101.014 98.288 101.825 98.5227 102.55 98.864C103.702 99.376 104.705 100.187 105.558 101.296C106.411 102.384 106.838 104.005 106.838 106.16C106.838 108.464 106.273 110.427 105.142 112.048C104.033 113.669 102.358 114.8 100.118 115.44C99.35 115.653 98.4434 115.813 97.398 115.92C96.374 116.027 95.2967 116.08 94.166 116.08H76.886ZM85.718 109.488H93.526C93.974 109.488 94.4327 109.445 94.902 109.36C95.3927 109.253 95.83 109.125 96.214 108.976C96.8327 108.72 97.27 108.283 97.526 107.664C97.8033 107.045 97.942 106.416 97.942 105.776C97.942 104.88 97.7393 104.176 97.334 103.664C96.95 103.152 96.5127 102.789 96.022 102.576C95.6167 102.384 95.1687 102.277 94.678 102.256C94.2087 102.213 93.8247 102.192 93.526 102.192H85.718V109.488ZM85.718 95.472H91.03C91.7127 95.472 92.3527 95.44 92.95 95.376C93.5687 95.2907 94.0807 95.152 94.486 94.96C95.0407 94.704 95.4567 94.2987 95.734 93.744C96.0113 93.168 96.15 92.528 96.15 91.824C96.15 91.0774 95.99 90.4053 95.67 89.808C95.3713 89.1893 94.87 88.7733 94.166 88.56C93.6967 88.3893 93.0993 88.2934 92.374 88.272C91.67 88.2507 91.222 88.24 91.03 88.24H85.718V95.472Z" fill="#06070A"/>
<path d="M52.377 117.04C48.8997 117.04 45.849 116.261 43.225 114.704C40.601 113.147 38.553 111.003 37.081 108.272C35.6303 105.52 34.905 102.363 34.905 98.8C34.905 95.1947 35.6517 92.0267 37.145 89.296C38.6383 86.544 40.697 84.4 43.321 82.864C45.945 81.328 48.9637 80.56 52.377 80.56C55.8543 80.56 58.905 81.3387 61.529 82.896C64.1743 84.4533 66.233 86.608 67.705 89.36C69.177 92.0907 69.913 95.2373 69.913 98.8C69.913 102.384 69.1663 105.552 67.673 108.304C66.201 111.035 64.1423 113.179 61.497 114.736C58.873 116.272 55.833 117.04 52.377 117.04ZM52.377 108.912C55.1717 108.912 57.2517 107.973 58.617 106.096C60.0037 104.197 60.697 101.765 60.697 98.8C60.697 95.728 59.993 93.2747 58.585 91.44C57.1983 89.6053 55.129 88.688 52.377 88.688C50.4783 88.688 48.921 89.1147 47.705 89.968C46.489 90.8213 45.5823 92.0053 44.985 93.52C44.409 95.0347 44.121 96.7947 44.121 98.8C44.121 101.893 44.8143 104.357 46.201 106.192C47.609 108.005 49.6677 108.912 52.377 108.912Z" fill="#06070A"/>
<path d="M15.424 117.04C12.2027 117.04 9.216 116.379 6.464 115.056C3.73333 113.712 1.57867 111.877 0 109.552L6.848 104.944C8.064 106.181 9.36533 107.152 10.752 107.856C12.16 108.56 13.696 108.912 15.36 108.912C17.088 108.912 18.432 108.539 19.392 107.792C20.3733 107.045 20.864 106.053 20.864 104.816C20.864 103.621 20.4693 102.811 19.68 102.384C18.912 101.957 17.9307 101.733 16.736 101.712C15.5627 101.691 14.3787 101.68 13.184 101.68H11.136V94.896H13.184C14.976 94.896 16.5013 94.7467 17.76 94.448C19.0187 94.128 19.648 93.2533 19.648 91.824C19.648 90.6293 19.2107 89.7973 18.336 89.328C17.4613 88.8587 16.448 88.624 15.296 88.624C13.76 88.624 12.2133 88.9547 10.656 89.616C9.09867 90.2773 7.68 91.056 6.4 91.952L1.6 86C3.56267 84.3573 5.73867 83.0453 8.128 82.064C10.5387 81.0613 13.056 80.56 15.68 80.56C17.8987 80.56 19.9893 80.944 21.952 81.712C23.936 82.48 25.536 83.6427 26.752 85.2C27.9893 86.736 28.608 88.6667 28.608 90.992C28.608 92.4853 28.3093 93.9467 27.712 95.376C27.1147 96.8053 26.0907 98.224 24.64 99.632L24.576 96.88C25.6427 97.4347 26.56 98.1493 27.328 99.024C28.1173 99.8773 28.7147 100.869 29.12 102C29.5467 103.131 29.76 104.368 29.76 105.712C29.76 108.187 29.0987 110.267 27.776 111.952C26.4533 113.637 24.704 114.907 22.528 115.76C20.352 116.613 17.984 117.04 15.424 117.04Z" fill="#06070A"/>
<path d="M413.24 46.08V35.072H407.672C406.946 35.072 405.954 35.0614 404.695 35.04C403.458 34.9974 402.295 34.88 401.207 34.688C398.455 34.1974 396.194 33.0027 394.423 31.104C392.674 29.2054 391.799 26.624 391.799 23.36C391.799 20.1814 392.642 17.6214 394.328 15.68C396.013 13.7387 398.263 12.5014 401.079 11.968C402.231 11.7334 403.416 11.6054 404.632 11.584C405.869 11.5414 406.882 11.52 407.672 11.52H421.944V46.08H413.24ZM390.967 46.08L398.776 33.28H407.736L400.056 46.08H390.967ZM406.712 28.352H413.24V18.24H406.712C406.328 18.24 405.901 18.2614 405.431 18.304C404.983 18.3467 404.514 18.432 404.023 18.56C403.426 18.7307 402.871 19.0507 402.359 19.52C401.847 19.968 401.432 20.5227 401.112 21.184C400.792 21.824 400.632 22.528 400.632 23.296C400.632 24.512 400.994 25.5467 401.72 26.4C402.445 27.232 403.255 27.776 404.151 28.032C404.599 28.16 405.048 28.2454 405.496 28.288C405.965 28.3307 406.37 28.352 406.712 28.352Z" fill="#06070A"/>
<path d="M352.324 46.08V11.52H361.027V24.704H375.236V11.52H383.94V46.08H375.236V32.832H361.027V46.08H352.324Z" fill="#06070A"/>
<path d="M329.514 47.04C325.973 47.04 322.847 46.2827 320.138 44.768C317.45 43.232 315.338 41.1307 313.802 38.464C312.287 35.776 311.53 32.704 311.53 29.248C311.53 25.472 312.277 22.1867 313.77 19.392C315.263 16.5973 317.322 14.432 319.946 12.896C322.57 11.3387 325.589 10.56 329.002 10.56C332.629 10.56 335.711 11.4133 338.25 13.12C340.789 14.8267 342.666 17.2267 343.882 20.32C345.098 23.4133 345.525 27.0507 345.162 31.232H336.554V28.032C336.554 24.512 335.989 21.984 334.858 20.448C333.749 18.8907 331.925 18.112 329.386 18.112C326.421 18.112 324.234 19.0187 322.826 20.832C321.439 22.624 320.746 25.28 320.746 28.8C320.746 32.0213 321.439 34.5173 322.826 36.288C324.234 38.0373 326.293 38.912 329.002 38.912C330.709 38.912 332.17 38.5387 333.386 37.792C334.602 37.0453 335.53 35.968 336.17 34.56L344.874 37.056C343.573 40.2133 341.514 42.6667 338.698 44.416C335.903 46.1653 332.842 47.04 329.514 47.04ZM318.058 31.232V24.768H340.97V31.232H318.058Z" fill="#06070A"/>
<path d="M266.324 46.08V11.52H273.363L285.396 33.92L297.427 11.52H304.467V46.08H296.147V28.864L286.931 46.08H283.859L274.643 28.864V46.08H266.324Z" fill="#06070A"/>
<path d="M232.685 54.72L233.197 51.072C234.221 51.1573 235.053 50.9867 235.693 50.56C236.333 50.1547 236.77 49.5573 237.005 48.768C237.261 48 237.314 47.104 237.165 46.08H232.685V37.376H241.389V46.08C241.389 49.152 240.674 51.4773 239.245 53.056C237.816 54.6347 235.629 55.1893 232.685 54.72Z" fill="#06070A"/>
<path d="M212.335 46.08V19.2H201.007V11.52H232.367V19.2H221.039V46.08H212.335Z" fill="#06070A"/>
<path d="M182.264 47.04C178.723 47.04 175.597 46.2827 172.888 44.768C170.2 43.232 168.088 41.1307 166.552 38.464C165.037 35.776 164.28 32.704 164.28 29.248C164.28 25.472 165.027 22.1867 166.52 19.392C168.013 16.5973 170.072 14.432 172.696 12.896C175.32 11.3387 178.339 10.56 181.752 10.56C185.379 10.56 188.461 11.4133 191 13.12C193.539 14.8267 195.416 17.2267 196.632 20.32C197.848 23.4133 198.275 27.0507 197.912 31.232H189.304V28.032C189.304 24.512 188.739 21.984 187.608 20.448C186.499 18.8907 184.675 18.112 182.136 18.112C179.171 18.112 176.984 19.0187 175.576 20.832C174.189 22.624 173.496 25.28 173.496 28.8C173.496 32.0213 174.189 34.5173 175.576 36.288C176.984 38.0373 179.043 38.912 181.752 38.912C183.459 38.912 184.92 38.5387 186.136 37.792C187.352 37.0453 188.28 35.968 188.92 34.56L197.624 37.056C196.323 40.2133 194.264 42.6667 191.448 44.416C188.653 46.1653 185.592 47.04 182.264 47.04ZM170.808 31.232V24.768H193.72V31.232H170.808Z" fill="#06070A"/>
<path d="M129.824 46.08V11.52H146.016C147.296 11.52 148.416 11.5947 149.376 11.744C150.336 11.872 151.136 12.032 151.776 12.224C153.354 12.6934 154.794 13.6107 156.096 14.976C157.397 16.3414 158.048 18.3254 158.048 20.928C158.048 22.464 157.802 23.712 157.312 24.672C156.821 25.6107 156.17 26.3894 155.36 27.008C154.976 27.2854 154.592 27.52 154.208 27.712C153.824 27.904 153.44 28.0534 153.056 28.16C153.952 28.288 154.762 28.5227 155.488 28.864C156.64 29.376 157.642 30.1867 158.496 31.296C159.349 32.384 159.776 34.0054 159.776 36.16C159.776 38.464 159.21 40.4267 158.08 42.048C156.97 43.6694 155.296 44.8 153.056 45.44C152.288 45.6534 151.381 45.8134 150.336 45.92C149.312 46.0267 148.234 46.08 147.104 46.08H129.824ZM138.656 39.488H146.464C146.912 39.488 147.37 39.4454 147.84 39.36C148.33 39.2534 148.768 39.1254 149.152 38.976C149.77 38.72 150.208 38.2827 150.464 37.664C150.741 37.0454 150.88 36.416 150.88 35.776C150.88 34.88 150.677 34.176 150.272 33.664C149.888 33.152 149.45 32.7894 148.96 32.576C148.554 32.384 148.106 32.2774 147.616 32.256C147.146 32.2134 146.762 32.192 146.464 32.192H138.656V39.488ZM138.656 25.472H143.968C144.65 25.472 145.29 25.44 145.888 25.376C146.506 25.2907 147.018 25.152 147.424 24.96C147.978 24.704 148.394 24.2987 148.672 23.744C148.949 23.168 149.088 22.528 149.088 21.824C149.088 21.0774 148.928 20.4054 148.608 19.808C148.309 19.1894 147.808 18.7734 147.104 18.56C146.634 18.3894 146.037 18.2934 145.312 18.272C144.608 18.2507 144.16 18.24 143.968 18.24H138.656V25.472Z" fill="#06070A"/>
<path d="M120.922 11.52V46.08H112.602V24.96L96.9855 46.08H90.0735V11.52H98.3935V31.936L114.074 11.52H120.922Z" fill="#06070A"/>
<path d="M67.16 47.04C63.7254 47.04 60.856 46.24 58.552 44.64C56.248 43.04 54.5094 40.864 53.336 38.112C52.184 35.36 51.608 32.256 51.608 28.8C51.608 25.344 52.184 22.24 53.336 19.488C54.488 16.736 56.184 14.56 58.424 12.96C60.664 11.36 63.4267 10.56 66.712 10.56C70.0187 10.56 72.8987 11.3493 75.352 12.928C77.8054 14.5067 79.704 16.672 81.048 19.424C82.4134 22.1547 83.096 25.28 83.096 28.8C83.096 32.256 82.424 35.36 81.08 38.112C79.7574 40.864 77.9014 43.04 75.512 44.64C73.1227 46.24 70.3387 47.04 67.16 47.04ZM50.136 61.44V11.52H57.816V35.2H58.904V61.44H50.136ZM65.752 39.296C67.6293 39.296 69.1653 38.8267 70.36 37.888C71.5547 36.9493 72.44 35.6907 73.016 34.112C73.592 32.512 73.88 30.7413 73.88 28.8C73.88 26.88 73.5813 25.1307 72.984 23.552C72.3867 21.952 71.4587 20.6827 70.2 19.744C68.9627 18.784 67.3734 18.304 65.432 18.304C63.6187 18.304 62.1467 18.7413 61.016 19.616C59.9067 20.4907 59.096 21.7173 58.584 23.296C58.072 24.8747 57.816 26.7093 57.816 28.8C57.816 30.8907 58.072 32.7253 58.584 34.304C59.096 35.8827 59.928 37.1093 61.08 37.984C62.2534 38.8587 63.8107 39.296 65.752 39.296Z" fill="#06070A"/>
<path d="M3.20001 46.08V0H41.216V46.08H32.512V8.128H11.904V46.08H3.20001Z" fill="#06070A"/>
</svg>
